# xmcd
#
# Track frame offsets:
#	182
#	10560
#	19665
#	33415
#	49195
#	59460
#	73015
#	84495
#	99252
#	109325
#	121867
#	137930
#	151237
#	161560
#	173255
#	190257
#	199025
#	216210
#	226542
#	244402
#	257575
#	271935
#	284642
#	297827
#	308540
#	318947
#	333900
#
# Disc length: 4616 seconds
#
# Revision: 11
# Processed by: cddbd v1.5.2PL0 Copyright (c) Steve Scherf et al.
# Submitted via: EZCDAudioConverter 2.1.7.1
#
DISCID=6f12061b
DTITLE=V/A - Nuggets II 3/4
DYEAR=2001
DGENRE=
TTITLE0=Cuby and The Blizzards - Your Body Not Your Soul
TTITLE1=The Twilights - Cathy, Come Home
TTITLE2=Les Fleur De Lys - Circles
TTITLE3=The Matadors - Get Down From The Tree
TTITLE4=Q'65 - Cry In The Night
TTITLE5=Los Chijuas - Changing The Colors Of Life
TTITLE6=The Bluestars - Social End Product
TTITLE7=The Syndicats - Crawdaddy Simone
TTITLE8=Sound Magics - Don't You Remember?
TTITLE9=Guess Who - It's My Pride
TTITLE10=Open Mind - Magic Potion
TTITLE11=Missing Links - You're Driving Me Insane
TTITLE12=The Jury - Who Dat?
TTITLE13=John's Children - A Midsummer's Night Scene
TTITLE14=Sands - Listen To The Sky
TTITLE15=The Mockingbirds - How To Find A Lover
TTITLE16=Idle Race - Days Of The Broken Arrows
TTITLE17=The Elois - By My Side
TTITLE18=The Factory - Path Through The Forest
TTITLE19=Episode Six - Love Hate Revenge
TTITLE20=Status Quo - Pictures Of Matchstick Men
TTITLE21=The Voice - The Train To Disaster
TTITLE22=The (Australian) Playboys - Sad
TTITLE23=The Slaves - Slaves Time
TTITLE24=Red Squares - You Can Be My Baby
TTITLE25=Scrugg - I Wish I Was Five
TTITLE26=Downliners Sect - Glendora
EXTD=
EXTT0=
EXTT1=
EXTT2=
EXTT3=
EXTT4=
EXTT5=
EXTT6=
EXTT7=
EXTT8=
EXTT9=
EXTT10=
EXTT11=
EXTT12=
EXTT13=
EXTT14=
EXTT15=
EXTT16=
EXTT17=
EXTT18=
EXTT19=
EXTT20=
EXTT21=
EXTT22=
EXTT23=
EXTT24=
EXTT25=
EXTT26=
PLAYORDER=
